<svg xmlns="http://www.w3.org/2000/svg" viewBox="0 0 512 512"><defs><style>.cls-1{fill:#ff8080;}</style></defs><title>down</title><g id="Layer_2" data-name="Layer 2"><g id="Capa_1" data-name="Capa 1"><path class="cls-1" d="M512,256C512,114.8,397.2,0,256,0S0,114.8,0,256,114.8,512,256,512,512,397.2,512,256ZM249,388.8,121,201.1a8.27,8.27,0,0,1-1.5-4.8,8.19,8.19,0,0,1,1-4,8.51,8.51,0,0,1,7.5-4.5H384a8.29,8.29,0,0,1,7.5,4.5,8.45,8.45,0,0,1-.5,8.8L263,388.8a8.54,8.54,0,0,1-7,3.7A8.41,8.41,0,0,1,249,388.8Z"/></g></g></svg>