<svg xmlns="http://www.w3.org/2000/svg" viewBox="0 0 512 512"><defs><style>.cls-1{fill:#ff8080;}</style></defs><title>left</title><g id="Layer_2" data-name="Layer 2"><g id="Capa_1" data-name="Capa 1"><path class="cls-1" d="M256,512c141.2,0,256-114.8,256-256S397.2,0,256,0,0,114.8,0,256,114.8,512,256,512ZM123.2,249,310.9,121a8.27,8.27,0,0,1,4.8-1.5,8.19,8.19,0,0,1,4,1,8.51,8.51,0,0,1,4.5,7.5V384a8.29,8.29,0,0,1-4.5,7.5,8.45,8.45,0,0,1-8.8-.5L123.2,263a8.54,8.54,0,0,1-3.7-7A8.41,8.41,0,0,1,123.2,249Z"/></g></g></svg>