<svg xmlns="http://www.w3.org/2000/svg" viewBox="0 0 512 512"><defs><style>.cls-1{fill:#ff8080;}</style></defs><title>up</title><g id="Layer_2" data-name="Layer 2"><g id="Capa_1" data-name="Capa 1"><path class="cls-1" d="M0,256C0,397.2,114.8,512,256,512S512,397.2,512,256,397.2,0,256,0,0,114.8,0,256ZM263,123.2,391,310.9a8.27,8.27,0,0,1,1.5,4.8,8.19,8.19,0,0,1-1,4,8.51,8.51,0,0,1-7.5,4.5H128a8.29,8.29,0,0,1-7.5-4.5,8.45,8.45,0,0,1,.5-8.8L249,123.2a8.54,8.54,0,0,1,7-3.7A8.41,8.41,0,0,1,263,123.2Z"/></g></g></svg>