<svg xmlns="http://www.w3.org/2000/svg" viewBox="0 0 351.02 117.99"><defs><style>.cls-1{fill:#fff;}</style></defs><title>wn-logo</title><g id="Layer_2" data-name="Layer 2"><g id="Layer_1-2" data-name="Layer 1"><path class="cls-1" d="M255.55,33.11c0,16.31,0,32.63-.05,48.94,0,2,.87,2.8,2.42,3.79,8.28,5.29,11.08,14.39,7.08,22.42-3.83,7.69-12.74,11.54-20.61,8.89-9-3-13.64-11.34-11.28-21a4.25,4.25,0,0,0-1.34-4.73Q207,66.68,182.31,41.9c-1.54-1.55-2.87-2.27-5.19-1.3-1.92.8-4.28,1.32-6.36.42-4.27-1.85-6.79.22-9.68,3.15-19.66,19.92-39.52,39.65-59.3,59.46-2.21,2.21-4.43,4-7.89,2.53s-3.59-4.43-3.59-7.49q0-29.5,0-59,0-2.62,0-5.24l-1.57-.93c-3.2,3.49-6.28,7.09-9.62,10.45Q52,71.25,24.77,98.44a24.39,24.39,0,0,1-4.85,4.26c-4,2.29-8.39-.55-8.48-5.58-.15-8.16,0-16.33,0-24.5,0-11.83-.06-23.67,0-35.5A5.2,5.2,0,0,0,8.61,32C1.17,27.33-1.54,20.06.83,12.29A17.26,17.26,0,0,1,17.28,0,17.4,17.4,0,0,1,33.86,12.81c2.11,7.28-.9,14.66-8,19.27-1.44.93-2.67,1.6-2.66,3.71.09,15.28,0,30.56,0,47.17,6.67-6.62,12.51-12.36,18.3-18.15Q66.12,40.25,90.63,15.63c2.29-2.31,4.62-3.92,7.91-2.51s3.66,4.37,3.65,7.52q-.05,29.25,0,58.5c0,1.91-.45,3.91.7,6.16,8.27-8.21,16.36-16.23,24.43-24.27,9-8.93,17.91-17.9,26.93-26.8,1.89-1.87,2.8-3.44,1.93-6.45-1.93-6.7,1.24-14.08,6.93-17.93a17,17,0,0,1,19.26-.1,16.36,16.36,0,0,1,7.16,17.8c-.8,3.08-.14,4.73,2,6.82,16.12,15.92,32.08,32,48.16,48,.93.93,1.66,3.08,3.44,2.08,1.19-.66.49-2.44.49-3.7q.06-30.5,0-61c0-3.27,0-6.48,3.71-7.9s5.93.68,8.28,3Q290,49.35,324.49,83.78a26,26,0,0,1,2,2.63c1.73-1.72,1.17-3.12,1.17-4.35,0-14.83,0-29.66.07-44.5,0-2.65-.38-4.39-3.08-5.95a16.29,16.29,0,0,1-7.42-19,17.15,17.15,0,0,1,33-.19,16.67,16.67,0,0,1-7.65,19.36c-2.38,1.37-3.06,2.79-3,5.42.12,20.17.06,40.33.07,60.5,0,3.64.66,7.56-3.81,9.34s-6.73-1.73-9.23-4.22Q293.2,69.51,259.87,36c-1.14-1.14-2.07-2.49-3.1-3.74ZM17.36,22.66c3-.51,5.32-2.09,5.19-5.49A5,5,0,0,0,17,12a5,5,0,0,0-5.1,5.15C11.88,20.31,14,22.27,17.36,22.66Zm315.93,0c3.38-.32,5.65-1.77,5.71-5.19s-1.9-5.39-5.17-5.43a4.83,4.83,0,0,0-5.24,4.84C328.37,20.24,330.39,21.94,333.29,22.65Zm-78.5,77.72c-.37-3.16-2.25-4.91-5.57-4.8a4.78,4.78,0,0,0-4.92,5.12c0,3.22,2,5.33,5.31,5.25S254.68,103.92,254.79,100.37ZM178.14,23.88c-.33-3.15-2.07-5.14-5.41-5.05a4.82,4.82,0,0,0-5.08,5,4.87,4.87,0,0,0,5.09,5.47C175.95,29.37,177.83,27.31,178.14,23.88Z"/></g></g></svg>