<svg xmlns="http://www.w3.org/2000/svg" viewBox="0 0 350.95 117.92"><defs><style>.cls-1{fill:#fff;}</style></defs><title>wn-logo-b</title><g id="Layer_2" data-name="Layer 2"><g id="Layer_1-2" data-name="Layer 1"><path d="M24.31,82.2Q44.36,62,64.41,41.9c8.7-8.73,17.46-17.41,26.11-26.19,2.26-2.29,5-4.52,7.76-2.42a10.57,10.57,0,0,1,3.66,7.32c.3,19.32.16,38.66.16,58V85l1.24.71c5.14-5.34,10.2-10.75,15.42-16q17.43-17.55,35-35c2.13-2.11,3.17-3.89,2.35-7.32-1.7-7.12.94-13.25,7-17.43s12.51-4.37,18.79-.44,9.28,9.92,7.67,17c-1,4.21.41,6.3,3.08,8.92q23.3,23,46.29,46.3c1.11,1.13,1.37,3.1,2,4.68l2.71-1.89V79.42q0-29,0-58c0-3.57-.91-7.66,3.54-9.51,4.61-1.91,7,1.62,9.69,4.29q33.76,33.73,67.51,67.48c.78.78,1.62,1.5,3,2.79.13-2.13.29-3.54.29-4.94,0-14.66,0-29.33.05-44,0-2.68-.47-4.43-3.12-6a16.31,16.31,0,0,1-7.35-19,17.12,17.12,0,0,1,33,.07,16.51,16.51,0,0,1-7.47,19c-2.88,1.65-3.26,3.54-3.25,6.4.09,20.33,0,40.66.08,61,0,3.31-.11,6.39-3.69,8s-6-.74-8.22-3Q294,70.21,260.25,36.45c-1.25-1.25-2.58-2.42-4.53-4.24-.1,2.29-.22,3.7-.22,5.11,0,14.33,0,28.66,0,43,0,2.67.46,4.39,3.09,6A16.72,16.72,0,0,1,265,108.13a17.26,17.26,0,0,1-20.58,9c-8.84-2.93-13.31-11.1-11.64-20.59A7.17,7.17,0,0,0,231.26,91q-24.19-24.58-48.77-48.77c-1.19-1.17-3.59-1.36-5.47-1.54s-4.23.89-5.88.22c-4.85-2-7.49.56-10.56,3.66q-29.36,29.66-59.08,59A10,10,0,0,1,94.17,106c-3.62-.46-3.88-4-3.88-7.12q0-29.49,0-59c0-1.8,0-3.6,0-6.72-2.14,2-3.54,3.19-4.85,4.5Q55.21,67.87,25,98.09c-.94.94-1.74,2.26-2.88,2.72-2.27.93-5.19,2.47-7,1.72s-3.51-4-3.59-6.14c-.37-10.65-.17-21.32-.17-32,0-8.83-.11-17.67.06-26.49A6.38,6.38,0,0,0,8,31.52,16.31,16.31,0,0,1,.89,12,17.23,17.23,0,0,1,17,0,17.34,17.34,0,0,1,33.75,12.65c2.1,7.12-.86,14.51-7.35,19.18-1.4,1-3,2.89-3.07,4.39-.23,15.13-.14,30.27-.14,45.4Zm-5.89-71-2.16,0c-1.48,2-4.12,4.08-4.1,6.09,0,1.78,2.77,4.53,4.77,5a4.3,4.3,0,0,0,5.37-4.78C22.05,15.28,19.79,13.3,18.43,11.21Zm237.09,90.54-.07-2.39c-2-1.26-3.79-3.29-5.9-3.62a4.2,4.2,0,0,0-5,5.1c.41,2,3.13,4.65,4.93,4.74C251.4,105.67,253.48,103.14,255.51,101.75Zm77.25-78.44,2.25-.07c1.31-2.11,3.76-4.31,3.59-6.29-.16-1.79-3-4.42-5-4.72a4.27,4.27,0,0,0-4.88,5.32C329.19,19.66,331.36,21.4,332.76,23.31Zm-165.94-.49q0,1.13,0,2.27c1.92,1.39,3.7,3.63,5.78,4,3.15.51,5.77-1.85,5.16-5-.38-2-3-4.81-4.72-4.91C171,19,168.9,21.47,166.81,22.82Z"/><path class="cls-1" d="M18.43,11.21c1.37,2.09,3.63,4.07,3.89,6.29a4.3,4.3,0,0,1-5.37,4.78c-2-.5-4.75-3.25-4.77-5,0-2,2.61-4.06,4.1-6.09Z"/><path class="cls-1" d="M255.51,101.75c-2,1.39-4.11,3.93-6.07,3.83-1.8-.09-4.51-2.79-4.93-4.74a4.2,4.2,0,0,1,5-5.1c2.1.33,3.94,2.35,5.9,3.62Z"/><path class="cls-1" d="M332.76,23.31c-1.4-1.91-3.57-3.65-4-5.76a4.27,4.27,0,0,1,4.88-5.32c2,.3,4.82,2.93,5,4.72.17,2-2.28,4.18-3.59,6.29Z"/><path class="cls-1" d="M166.81,22.82C168.9,21.47,171,19,173,19.11c1.74.1,4.33,2.93,4.72,4.91.61,3.19-2,5.55-5.16,5-2.09-.34-3.87-2.58-5.78-4Q166.81,24,166.81,22.82Z"/></g></g></svg>